
<global>
ampeg_attack=0.01
ampeg_release=0.035
master-volume=6
</global>

<group>
group_label=Group

<region>
end=57600
hikey=B5
hivel=13
interval_point=33416
lokey=A#5
lovel=13
offset=9600
pitch_keycenter=A#5
sample=Electric_hammer_pull_MF_A#6_-1.opus
</region>

<region>
end=67200
hikey=E6
hivel=0
interval_point=37376
lokey=C6
lovel=0
offset=9600
pitch_keycenter=C6
sample=Electric_fast_repeat_MF_C7.opus
</region>

<region>
end=67200
hikey=F2
hivel=3
interval_point=36401
lokey=C2
lovel=3
offset=9600
pitch_keycenter=E2
sample=Electric_hammer_pull_MF_E3_+3.opus
</region>

<region>
end=67200
hikey=A4
hivel=2
interval_point=39936
lokey=G#4
lovel=2
offset=9600
pitch_keycenter=G#4
sample=Electric_hammer_pull_MF_G#5_+2.opus
</region>

<region>
end=67200
hikey=D#4
hivel=2
interval_point=38400
lokey=D4
lovel=2
offset=9600
pitch_keycenter=D4
sample=Electric_hammer_pull_MF_D5_+2.opus
</region>

<region>
end=67200
hikey=G2
hivel=0
interval_point=40448
lokey=F#2
lovel=0
offset=9600
pitch_keycenter=F#2
sample=Electric_fast_repeat_MF_F#3.opus
</region>

<region>
end=57600
hikey=F5
hivel=15
interval_point=33031
lokey=E5
lovel=15
offset=9600
pitch_keycenter=E5
sample=Electric_hammer_pull_MF_E6_-3.opus
</region>

<region>
end=57600
hikey=D#3
hivel=15
interval_point=34454
lokey=D3
lovel=15
offset=9600
pitch_keycenter=D3
sample=Electric_hammer_pull_MF_D4_-3.opus
</region>

<region>
end=57600
hikey=C#4
hivel=14
interval_point=36976
lokey=C4
lovel=14
offset=9600
sample=Electric_hammer_pull_MF_C5_-2.opus
</region>

<region>
end=67200
hikey=G4
hivel=0
interval_point=35328
lokey=F#4
lovel=0
offset=9600
pitch_keycenter=F#4
sample=Electric_fast_repeat_MF_F#5.opus
</region>

<region>
end=57600
hikey=D#5
hivel=13
interval_point=35328
lokey=D5
lovel=13
offset=9600
pitch_keycenter=D5
sample=Electric_hammer_pull_MF_D6_-1.opus
</region>

<region>
end=57600
hikey=B2
hivel=16
interval_point=33671
lokey=A#2
lovel=16
offset=9600
pitch_keycenter=A#2
sample=Electric_hammer_pull_MF_A#3_-4.opus
</region>

<region>
end=67200
hikey=B3
hivel=3
interval_point=39936
lokey=A#3
lovel=3
offset=9600
pitch_keycenter=A#3
sample=Electric_hammer_pull_MF_A#4_+3.opus
</region>

<region>
end=67200
hikey=C#5
hivel=2
interval_point=37888
lokey=C5
lovel=2
offset=9600
pitch_keycenter=C5
sample=Electric_hammer_pull_MF_C6_+2.opus
</region>

<region>
end=57600
hikey=B3
hivel=15
interval_point=38202
lokey=A#3
lovel=15
offset=9600
pitch_keycenter=A#3
sample=Electric_hammer_pull_MF_A#4_-3.opus
</region>

<region>
end=67200
hikey=G3
hivel=3
interval_point=37376
lokey=F#3
lovel=3
offset=9600
pitch_keycenter=F#3
sample=Electric_hammer_pull_MF_F#4_+3.opus
</region>

<region>
end=57600
hikey=F2
hivel=15
interval_point=34545
lokey=C2
lovel=15
offset=9600
pitch_keycenter=E2
sample=Electric_hammer_pull_MF_E3_-3.opus
</region>

<region>
end=67200
hikey=F3
hivel=4
interval_point=34816
lokey=E3
lovel=4
offset=9600
pitch_keycenter=E3
sample=Electric_hammer_pull_MF_E4_+4.opus
</region>

<region>
end=67200
hikey=B3
hivel=2
interval_point=37888
lokey=A#3
lovel=2
offset=9600
pitch_keycenter=A#3
sample=Electric_hammer_pull_MF_A#4_+2.opus
</region>

<region>
end=67200
hikey=A2
hivel=3
interval_point=42521
lokey=G#2
lovel=3
offset=9600
pitch_keycenter=G#2
sample=Electric_hammer_pull_MF_G#3_+3.opus
</region>

<region>
end=57600
hikey=G2
hivel=16
interval_point=33585
lokey=F#2
lovel=16
offset=9600
pitch_keycenter=F#2
sample=Electric_hammer_pull_MF_F#3_-4.opus
</region>

<region>
end=67200
hikey=C#5
hivel=4
interval_point=36864
lokey=C5
lovel=4
offset=9600
pitch_keycenter=C5
sample=Electric_hammer_pull_MF_C6_+4.opus
</region>

<region>
end=67200
hikey=A4
hivel=0
interval_point=39424
lokey=G#4
lovel=0
offset=9600
pitch_keycenter=G#4
sample=Electric_fast_repeat_MF_G#5.opus
</region>

<region>
end=57600
hikey=E6
hivel=14
interval_point=33351
lokey=A#5
lovel=14
offset=9600
pitch_keycenter=A#5
sample=Electric_hammer_pull_MF_A#6_-2.opus
</region>

<region>
end=57600
hikey=D#4
hivel=14
interval_point=35328
lokey=D4
lovel=14
offset=9600
pitch_keycenter=D4
sample=Electric_hammer_pull_MF_D5_-2.opus
</region>

<region>
end=57600
hikey=B4
hivel=15
interval_point=34304
lokey=A#4
lovel=15
offset=9600
pitch_keycenter=A#4
sample=Electric_hammer_pull_MF_A#5_-3.opus
</region>

<region>
end=57600
hikey=G3
hivel=14
interval_point=34816
lokey=F#3
lovel=14
offset=9600
pitch_keycenter=F#3
sample=Electric_hammer_pull_MF_F#4_-2.opus
</region>

<region>
end=57600
hikey=G5
hivel=13
interval_point=34819
lokey=F#5
lovel=13
offset=9600
pitch_keycenter=F#5
sample=Electric_hammer_pull_MF_F#6_-1.opus
</region>

<region>
end=57600
hikey=G4
hivel=13
interval_point=32925
lokey=F#4
lovel=13
offset=9600
pitch_keycenter=F#4
sample=Electric_hammer_pull_MF_F#5_-1.opus
</region>

<region>
end=67200
hikey=C#5
hivel=3
interval_point=38400
lokey=C5
lovel=3
offset=9600
pitch_keycenter=C5
sample=Electric_hammer_pull_MF_C6_+3.opus
</region>

<region>
end=67200
hikey=C#3
hivel=0
interval_point=37376
lokey=C3
lovel=0
offset=9600
pitch_keycenter=C3
sample=Electric_fast_repeat_MF_C4.opus
</region>

<region>
end=57600
hikey=F2
hivel=13
interval_point=35546
lokey=C2
lovel=13
offset=9600
pitch_keycenter=E2
sample=Electric_hammer_pull_MF_E3_-1.opus
</region>

<region>
end=57600
hikey=A2
hivel=16
interval_point=32191
lokey=G#2
lovel=16
offset=9600
pitch_keycenter=G#2
sample=Electric_hammer_pull_MF_G#3_-4.opus
</region>

<region>
end=67200
hikey=B2
hivel=2
interval_point=39936
lokey=A#2
lovel=2
offset=9600
pitch_keycenter=A#2
sample=Electric_hammer_pull_MF_A#3_+2.opus
</region>

<region>
end=67200
hikey=E6
hivel=2
interval_point=38585
lokey=A#5
lovel=2
offset=9600
pitch_keycenter=A#5
sample=Electric_hammer_pull_MF_A#6_+2.opus
</region>

<region>
end=67200
hikey=F3
hivel=3
interval_point=37888
lokey=E3
lovel=3
offset=9600
pitch_keycenter=E3
sample=Electric_hammer_pull_MF_E4_+3.opus
</region>

<region>
end=67200
hikey=A3
hivel=2
interval_point=39424
lokey=G#3
lovel=2
offset=9600
pitch_keycenter=G#3
sample=Electric_hammer_pull_MF_G#4_+2.opus
</region>

<region>
end=57600
hikey=A2
hivel=14
interval_point=36535
lokey=G#2
lovel=14
offset=9600
pitch_keycenter=G#2
sample=Electric_hammer_pull_MF_G#3_-2.opus
</region>

<region>
end=57600
hikey=A2
hivel=13
interval_point=35293
lokey=G#2
lovel=13
offset=9600
pitch_keycenter=G#2
sample=Electric_hammer_pull_MF_G#3_-1.opus
</region>

<region>
end=57600
hikey=B4
hivel=16
interval_point=32256
lokey=A#4
lovel=16
offset=9600
pitch_keycenter=A#4
sample=Electric_hammer_pull_MF_A#5_-4.opus
</region>

<region>
end=57600
hikey=G5
hivel=14
interval_point=34274
lokey=F#5
lovel=14
offset=9600
pitch_keycenter=F#5
sample=Electric_hammer_pull_MF_F#6_-2.opus
</region>

<region>
end=57600
hikey=C#5
hivel=15
interval_point=34304
lokey=C5
lovel=15
offset=9600
pitch_keycenter=C5
sample=Electric_hammer_pull_MF_C6_-3.opus
</region>

<region>
end=67200
hikey=C#5
hivel=0
interval_point=38400
lokey=C5
lovel=0
offset=9600
pitch_keycenter=C5
sample=Electric_fast_repeat_MF_C6.opus
</region>

<region>
end=67200
hikey=D#5
hivel=1
interval_point=37888
lokey=D5
lovel=1
offset=9600
pitch_keycenter=D5
sample=Electric_hammer_pull_MF_D6_+1.opus
</region>

<region>
end=67200
hikey=D#5
hivel=0
interval_point=37376
lokey=D5
lovel=0
offset=9600
pitch_keycenter=D5
sample=Electric_fast_repeat_MF_D6.opus
</region>

<region>
end=57600
hikey=A3
hivel=14
interval_point=35446
lokey=G#3
lovel=14
offset=9600
pitch_keycenter=G#3
sample=Electric_hammer_pull_MF_G#4_-2.opus
</region>

<region>
end=67200
hikey=A3
hivel=0
interval_point=35840
lokey=G#3
lovel=0
offset=9600
pitch_keycenter=G#3
sample=Electric_fast_repeat_MF_G#4.opus
</region>

<region>
end=67200
hikey=B4
hivel=2
interval_point=40960
lokey=A#4
lovel=2
offset=9600
pitch_keycenter=A#4
sample=Electric_hammer_pull_MF_A#5_+2.opus
</region>

<region>
end=67200
hikey=B4
hivel=4
interval_point=40448
lokey=A#4
lovel=4
offset=9600
pitch_keycenter=A#4
sample=Electric_hammer_pull_MF_A#5_+4.opus
</region>

<region>
end=67200
hikey=A4
hivel=1
interval_point=38400
lokey=G#4
lovel=1
offset=9600
pitch_keycenter=G#4
sample=Electric_hammer_pull_MF_G#5_+1.opus
</region>

<region>
end=57600
hikey=D#4
hivel=13
interval_point=34982
lokey=D4
lovel=13
offset=9600
pitch_keycenter=D4
sample=Electric_hammer_pull_MF_D5_-1.opus
</region>

<region>
end=67200
hikey=C#4
hivel=0
interval_point=36352
lokey=C4
lovel=0
offset=9600
sample=Electric_fast_repeat_MF_C5.opus
</region>

<region>
end=67200
hikey=G3
hivel=2
interval_point=39788
lokey=F#3
lovel=2
offset=9600
pitch_keycenter=F#3
sample=Electric_hammer_pull_MF_F#4_+2.opus
</region>

<region>
end=57600
hikey=E6
hivel=15
interval_point=33792
lokey=A#5
lovel=15
offset=9600
pitch_keycenter=A#5
sample=Electric_hammer_pull_MF_A#6_-3.opus
</region>

<region>
end=57600
hikey=G3
hivel=13
interval_point=35881
lokey=F#3
lovel=13
offset=9600
pitch_keycenter=F#3
sample=Electric_hammer_pull_MF_F#4_-1.opus
</region>

<region>
end=57600
hikey=B3
hivel=14
interval_point=36864
lokey=A#3
lovel=14
offset=9600
pitch_keycenter=A#3
sample=Electric_hammer_pull_MF_A#4_-2.opus
</region>

<region>
end=57600
hikey=A3
hivel=15
interval_point=36299
lokey=G#3
lovel=15
offset=9600
pitch_keycenter=G#3
sample=Electric_hammer_pull_MF_G#4_-3.opus
</region>

<region>
end=67200
hikey=B3
hivel=4
interval_point=37376
lokey=A#3
lovel=4
offset=9600
pitch_keycenter=A#3
sample=Electric_hammer_pull_MF_A#4_+4.opus
</region>

<region>
end=67200
hikey=C#5
hivel=1
interval_point=35840
lokey=C5
lovel=1
offset=9600
pitch_keycenter=C5
sample=Electric_hammer_pull_MF_C6_+1.opus
</region>

<region>
end=57600
hikey=E6
hivel=13
interval_point=35386
lokey=C6
lovel=13
offset=9600
pitch_keycenter=C6
sample=Electric_hammer_pull_MF_C7_-1.opus
</region>

<region>
end=67200
hikey=G5
hivel=4
interval_point=36864
lokey=F#5
lovel=4
offset=9600
pitch_keycenter=F#5
sample=Electric_hammer_pull_MF_F#6_+4.opus
</region>

<region>
end=57600
hikey=A5
hivel=15
interval_point=34285
lokey=G#5
lovel=15
offset=9600
pitch_keycenter=G#5
sample=Electric_hammer_pull_MF_G#6_-3.opus
</region>

<region>
end=67200
hikey=G5
hivel=1
interval_point=38090
lokey=F#5
lovel=1
offset=9600
pitch_keycenter=F#5
sample=Electric_hammer_pull_MF_F#6_+1.opus
</region>

<region>
end=67200
hikey=B4
hivel=1
interval_point=37376
lokey=A#4
lovel=1
offset=9600
pitch_keycenter=A#4
sample=Electric_hammer_pull_MF_A#5_+1.opus
</region>

<region>
end=57600
hikey=F4
hivel=16
interval_point=32256
lokey=E4
lovel=16
offset=9600
pitch_keycenter=E4
sample=Electric_hammer_pull_MF_E5_-4.opus
</region>

<region>
end=57600
hikey=A4
hivel=16
interval_point=33792
lokey=G#4
lovel=16
offset=9600
pitch_keycenter=G#4
sample=Electric_hammer_pull_MF_G#5_-4.opus
</region>

<region>
end=57600
hikey=G2
hivel=15
interval_point=33756
lokey=F#2
lovel=15
offset=9600
pitch_keycenter=F#2
sample=Electric_hammer_pull_MF_F#3_-3.opus
</region>

<region>
end=67200
hikey=F4
hivel=4
interval_point=37468
lokey=E4
lovel=4
offset=9600
pitch_keycenter=E4
sample=Electric_hammer_pull_MF_E5_+4.opus
</region>

<region>
end=67200
hikey=B2
hivel=1
interval_point=38912
lokey=A#2
lovel=1
offset=9600
pitch_keycenter=A#2
sample=Electric_hammer_pull_MF_A#3_+1.opus
</region>

<region>
end=57600
hikey=F5
hivel=13
interval_point=34293
lokey=E5
lovel=13
offset=9600
pitch_keycenter=E5
sample=Electric_hammer_pull_MF_E6_-1.opus
</region>

<region>
end=67200
hikey=A2
hivel=4
interval_point=39424
lokey=G#2
lovel=4
offset=9600
pitch_keycenter=G#2
sample=Electric_hammer_pull_MF_G#3_+4.opus
</region>

<region>
end=67200
hikey=C#3
hivel=2
interval_point=44544
lokey=C3
lovel=2
offset=9600
pitch_keycenter=C3
sample=Electric_hammer_pull_MF_C4_+2.opus
</region>

<region>
end=67200
hikey=C#3
hivel=4
interval_point=37376
lokey=C3
lovel=4
offset=9600
pitch_keycenter=C3
sample=Electric_hammer_pull_MF_C4_+4.opus
</region>

<region>
end=67200
hikey=C#4
hivel=1
interval_point=39936
lokey=C4
lovel=1
offset=9600
sample=Electric_hammer_pull_MF_C5_+1.opus
</region>

<region>
end=67200
hikey=F2
hivel=4
interval_point=38912
lokey=C2
lovel=4
offset=9600
pitch_keycenter=E2
sample=Electric_hammer_pull_MF_E3_+4.opus
</region>

<region>
end=67200
hikey=A5
hivel=2
interval_point=37376
lokey=G#5
lovel=2
offset=9600
pitch_keycenter=G#5
sample=Electric_hammer_pull_MF_G#6_+2.opus
</region>

<region>
end=57600
hikey=F3
hivel=13
interval_point=33255
lokey=E3
lovel=13
offset=9600
pitch_keycenter=E3
sample=Electric_hammer_pull_MF_E4_-1.opus
</region>

<region>
end=67200
hikey=G2
hivel=3
interval_point=37888
lokey=F#2
lovel=3
offset=9600
pitch_keycenter=F#2
sample=Electric_hammer_pull_MF_F#3_+3.opus
</region>

<region>
end=57600
hikey=F5
hivel=16
interval_point=36119
lokey=E5
lovel=16
offset=9600
pitch_keycenter=E5
sample=Electric_hammer_pull_MF_E6_-4.opus
</region>

<region>
end=67200
hikey=D#3
hivel=1
interval_point=37439
lokey=D3
lovel=1
offset=9600
pitch_keycenter=D3
sample=Electric_hammer_pull_MF_D4_+1.opus
</region>

<region>
end=57600
hikey=C#5
hivel=16
interval_point=34304
lokey=C5
lovel=16
offset=9600
pitch_keycenter=C5
sample=Electric_hammer_pull_MF_C6_-4.opus
</region>

<region>
end=67200
hikey=G3
hivel=0
interval_point=37888
lokey=F#3
lovel=0
offset=9600
pitch_keycenter=F#3
sample=Electric_fast_repeat_MF_F#4.opus
</region>

<region>
end=67200
hikey=F4
hivel=3
interval_point=40026
lokey=E4
lovel=3
offset=9600
pitch_keycenter=E4
sample=Electric_hammer_pull_MF_E5_+3.opus
</region>

<region>
end=57600
hikey=F2
hivel=14
interval_point=35704
lokey=C2
lovel=14
offset=9600
pitch_keycenter=E2
sample=Electric_hammer_pull_MF_E3_-2.opus
</region>

<region>
end=67200
hikey=B2
hivel=4
interval_point=35570
lokey=A#2
lovel=4
offset=9600
pitch_keycenter=A#2
sample=Electric_hammer_pull_MF_A#3_+4.opus
</region>

<region>
end=67200
hikey=C#4
hivel=3
interval_point=37888
lokey=C4
lovel=3
offset=9600
sample=Electric_hammer_pull_MF_C5_+3.opus
</region>

<region>
end=57600
hikey=B4
hivel=14
interval_point=33638
lokey=A#4
lovel=14
offset=9600
pitch_keycenter=A#4
sample=Electric_hammer_pull_MF_A#5_-2.opus
</region>

<region>
end=57600
hikey=F3
hivel=16
interval_point=35401
lokey=E3
lovel=16
offset=9600
pitch_keycenter=E3
sample=Electric_hammer_pull_MF_E4_-4.opus
</region>

<region>
end=67200
hikey=G5
hivel=3
interval_point=39936
lokey=F#5
lovel=3
offset=9600
pitch_keycenter=F#5
sample=Electric_hammer_pull_MF_F#6_+3.opus
</region>

<region>
end=57600
hikey=F4
hivel=14
interval_point=34747
lokey=E4
lovel=14
offset=9600
pitch_keycenter=E4
sample=Electric_hammer_pull_MF_E5_-2.opus
</region>

<region>
end=57600
hikey=A4
hivel=14
interval_point=33792
lokey=G#4
lovel=14
offset=9600
pitch_keycenter=G#4
sample=Electric_hammer_pull_MF_G#5_-2.opus
</region>

<region>
end=67200
hikey=A5
hivel=0
interval_point=38400
lokey=G#5
lovel=0
offset=9600
pitch_keycenter=G#5
sample=Electric_fast_repeat_MF_G#6.opus
</region>

<region>
end=67200
hikey=B5
hivel=1
interval_point=38400
lokey=A#5
lovel=1
offset=9600
pitch_keycenter=A#5
sample=Electric_hammer_pull_MF_A#6_+1.opus
</region>

<region>
end=67200
hikey=G2
hivel=1
interval_point=38219
lokey=F#2
lovel=1
offset=9600
pitch_keycenter=F#2
sample=Electric_hammer_pull_MF_F#3_+1.opus
</region>

<region>
end=67200
hikey=G4
hivel=1
interval_point=35935
lokey=F#4
lovel=1
offset=9600
pitch_keycenter=F#4
sample=Electric_hammer_pull_MF_F#5_+1.opus
</region>

<region>
end=67200
hikey=D#4
hivel=0
interval_point=38400
lokey=D4
lovel=0
offset=9600
pitch_keycenter=D4
sample=Electric_fast_repeat_MF_D5.opus
</region>

<region>
end=67200
hikey=B5
hivel=0
interval_point=38400
lokey=A#5
lovel=0
offset=9600
pitch_keycenter=A#5
sample=Electric_fast_repeat_MF_A#6.opus
</region>

<region>
end=57600
hikey=D#5
hivel=15
interval_point=31232
lokey=D5
lovel=15
offset=9600
pitch_keycenter=D5
sample=Electric_hammer_pull_MF_D6_-3.opus
</region>

<region>
end=67200
hikey=C#3
hivel=1
interval_point=36571
lokey=C3
lovel=1
offset=9600
pitch_keycenter=C3
sample=Electric_hammer_pull_MF_C4_+1.opus
</region>

<region>
end=67200
hikey=F4
hivel=2
interval_point=39235
lokey=E4
lovel=2
offset=9600
pitch_keycenter=E4
sample=Electric_hammer_pull_MF_E5_+2.opus
</region>

<region>
end=57600
hikey=G4
hivel=16
interval_point=36352
lokey=F#4
lovel=16
offset=9600
pitch_keycenter=F#4
sample=Electric_hammer_pull_MF_F#5_-4.opus
</region>

<region>
end=57600
hikey=A5
hivel=14
interval_point=33012
lokey=G#5
lovel=14
offset=9600
pitch_keycenter=G#5
sample=Electric_hammer_pull_MF_G#6_-2.opus
</region>

<region>
end=67200
hikey=G3
hivel=1
interval_point=37198
lokey=F#3
lovel=1
offset=9600
pitch_keycenter=F#3
sample=Electric_hammer_pull_MF_F#4_+1.opus
</region>

<region>
end=67200
hikey=B3
hivel=1
interval_point=36352
lokey=A#3
lovel=1
offset=9600
pitch_keycenter=A#3
sample=Electric_hammer_pull_MF_A#4_+1.opus
</region>

<region>
end=67200
hikey=D#5
hivel=4
interval_point=40960
lokey=D5
lovel=4
offset=9600
pitch_keycenter=D5
sample=Electric_hammer_pull_MF_D6_+4.opus
</region>

<region>
end=67200
hikey=F5
hivel=2
interval_point=39424
lokey=E5
lovel=2
offset=9600
pitch_keycenter=E5
sample=Electric_hammer_pull_MF_E6_+2.opus
</region>

<region>
end=57600
hikey=E6
hivel=16
interval_point=34122
lokey=G#5
lovel=16
offset=9600
pitch_keycenter=G#5
sample=Electric_hammer_pull_MF_G#6_-4.opus
</region>

<region>
end=67200
hikey=E6
hivel=3
interval_point=37888
lokey=A#5
lovel=3
offset=9600
pitch_keycenter=A#5
sample=Electric_hammer_pull_MF_A#6_+3.opus
</region>

<region>
end=57600
hikey=A4
hivel=15
interval_point=35840
lokey=G#4
lovel=15
offset=9600
pitch_keycenter=G#4
sample=Electric_hammer_pull_MF_G#5_-3.opus
</region>

<region>
end=67200
hikey=A2
hivel=1
interval_point=38745
lokey=G#2
lovel=1
offset=9600
pitch_keycenter=G#2
sample=Electric_hammer_pull_MF_G#3_+1.opus
</region>

<region>
end=67200
hikey=G3
hivel=4
interval_point=39983
lokey=F#3
lovel=4
offset=9600
pitch_keycenter=F#3
sample=Electric_hammer_pull_MF_F#4_+4.opus
</region>

<region>
end=57600
hikey=C#3
hivel=16
interval_point=36864
lokey=C3
lovel=16
offset=9600
pitch_keycenter=C3
sample=Electric_hammer_pull_MF_C4_-4.opus
</region>

<region>
end=57600
hikey=G4
hivel=15
interval_point=34816
lokey=F#4
lovel=15
offset=9600
pitch_keycenter=F#4
sample=Electric_hammer_pull_MF_F#5_-3.opus
</region>

<region>
end=67200
hikey=F5
hivel=1
interval_point=36864
lokey=E5
lovel=1
offset=9600
pitch_keycenter=E5
sample=Electric_hammer_pull_MF_E6_+1.opus
</region>

<region>
end=67200
hikey=F2
hivel=0
interval_point=34816
lokey=C2
lovel=0
offset=9600
pitch_keycenter=E2
sample=Electric_fast_repeat_MF_E3.opus
</region>

<region>
end=67200
hikey=F4
hivel=0
interval_point=39424
lokey=E4
lovel=0
offset=9600
pitch_keycenter=E4
sample=Electric_fast_repeat_MF_E5.opus
</region>

<region>
end=57600
hikey=B4
hivel=13
interval_point=33695
lokey=A#4
lovel=13
offset=9600
pitch_keycenter=A#4
sample=Electric_hammer_pull_MF_A#5_-1.opus
</region>

<region>
end=67200
hikey=D#3
hivel=0
interval_point=39936
lokey=D3
lovel=0
offset=9600
pitch_keycenter=D3
sample=Electric_fast_repeat_MF_D4.opus
</region>

<region>
end=57600
hikey=C#3
hivel=14
interval_point=34284
lokey=C3
lovel=14
offset=9600
pitch_keycenter=C3
sample=Electric_hammer_pull_MF_C4_-2.opus
</region>

<region>
end=67200
hikey=C#3
hivel=3
interval_point=44945
lokey=C3
lovel=3
offset=9600
pitch_keycenter=C3
sample=Electric_hammer_pull_MF_C4_+3.opus
</region>

<region>
end=57600
hikey=G3
hivel=15
interval_point=37589
lokey=F#3
lovel=15
offset=9600
pitch_keycenter=F#3
sample=Electric_hammer_pull_MF_F#4_-3.opus
</region>

<region>
end=57600
hikey=G4
hivel=14
interval_point=33280
lokey=F#4
lovel=14
offset=9600
pitch_keycenter=F#4
sample=Electric_hammer_pull_MF_F#5_-2.opus
</region>

<region>
end=57600
hikey=C#5
hivel=13
interval_point=34816
lokey=C5
lovel=13
offset=9600
pitch_keycenter=C5
sample=Electric_hammer_pull_MF_C6_-1.opus
</region>

<region>
end=67200
hikey=F3
hivel=1
interval_point=34816
lokey=E3
lovel=1
offset=9600
pitch_keycenter=E3
sample=Electric_hammer_pull_MF_E4_+1.opus
</region>

<region>
end=57600
hikey=F5
hivel=14
interval_point=32256
lokey=E5
lovel=14
offset=9600
pitch_keycenter=E5
sample=Electric_hammer_pull_MF_E6_-2.opus
</region>

<region>
end=57600
hikey=C#4
hivel=15
interval_point=35261
lokey=C4
lovel=15
offset=9600
sample=Electric_hammer_pull_MF_C5_-3.opus
</region>

<region>
end=57600
hikey=G3
hivel=16
interval_point=37262
lokey=F#3
lovel=16
offset=9600
pitch_keycenter=F#3
sample=Electric_hammer_pull_MF_F#4_-4.opus
</region>

<region>
end=67200
hikey=G4
hivel=2
interval_point=38400
lokey=F#4
lovel=2
offset=9600
pitch_keycenter=F#4
sample=Electric_hammer_pull_MF_F#5_+2.opus
</region>

<region>
end=67200
hikey=G5
hivel=0
interval_point=41472
lokey=F#5
lovel=0
offset=9600
pitch_keycenter=F#5
sample=Electric_fast_repeat_MF_F#6.opus
</region>

<region>
end=58015
hikey=G5
hivel=16
interval_point=35542
lokey=F#5
lovel=16
offset=9600
pitch_keycenter=F#5
sample=Electric_hammer_pull_MF_F#6_-4.opus
</region>

<region>
end=67200
hikey=D#5
hivel=2
interval_point=36352
lokey=D5
lovel=2
offset=9600
pitch_keycenter=D5
sample=Electric_hammer_pull_MF_D6_+2.opus
</region>

<region>
end=67200
hikey=D#4
hivel=4
interval_point=39936
lokey=D4
lovel=4
offset=9600
pitch_keycenter=D4
sample=Electric_hammer_pull_MF_D5_+4.opus
</region>

<region>
end=67200
hikey=D#5
hivel=3
interval_point=38912
lokey=D5
lovel=3
offset=9600
pitch_keycenter=D5
sample=Electric_hammer_pull_MF_D6_+3.opus
</region>

<region>
end=57600
hikey=B2
hivel=13
interval_point=36352
lokey=A#2
lovel=13
offset=9600
pitch_keycenter=A#2
sample=Electric_hammer_pull_MF_A#3_-1.opus
</region>

<region>
end=67200
hikey=A2
hivel=0
interval_point=39936
lokey=G#2
lovel=0
offset=9600
pitch_keycenter=G#2
sample=Electric_fast_repeat_MF_G#3.opus
</region>

<region>
end=57600
hikey=D#3
hivel=14
interval_point=36027
lokey=D3
lovel=14
offset=9600
pitch_keycenter=D3
sample=Electric_hammer_pull_MF_D4_-2.opus
</region>

<region>
end=57600
hikey=D#4
hivel=16
interval_point=32768
lokey=D4
lovel=16
offset=9600
pitch_keycenter=D4
sample=Electric_hammer_pull_MF_D5_-4.opus
</region>

<region>
end=57600
hikey=A2
hivel=15
interval_point=33987
lokey=G#2
lovel=15
offset=9600
pitch_keycenter=G#2
sample=Electric_hammer_pull_MF_G#3_-3.opus
</region>

<region>
end=67200
hikey=B4
hivel=3
interval_point=40448
lokey=A#4
lovel=3
offset=9600
pitch_keycenter=A#4
sample=Electric_hammer_pull_MF_A#5_+3.opus
</region>

<region>
end=67200
hikey=F5
hivel=4
interval_point=39936
lokey=E5
lovel=4
offset=9600
pitch_keycenter=E5
sample=Electric_hammer_pull_MF_E6_+4.opus
</region>

<region>
end=57600
hikey=F4
hivel=15
interval_point=33710
lokey=E4
lovel=15
offset=9600
pitch_keycenter=E4
sample=Electric_hammer_pull_MF_E5_-3.opus
</region>

<region>
end=57600
hikey=A5
hivel=13
interval_point=34284
lokey=G#5
lovel=13
offset=9600
pitch_keycenter=G#5
sample=Electric_hammer_pull_MF_G#6_-1.opus
</region>

<region>
end=67200
hikey=B2
hivel=0
interval_point=35328
lokey=A#2
lovel=0
offset=9600
pitch_keycenter=A#2
sample=Electric_fast_repeat_MF_A#3.opus
</region>

<region>
end=67200
hikey=F3
hivel=0
interval_point=34816
lokey=E3
lovel=0
offset=9600
pitch_keycenter=E3
sample=Electric_fast_repeat_MF_E4.opus
</region>

<region>
end=67200
hikey=B4
hivel=0
interval_point=37888
lokey=A#4
lovel=0
offset=9600
pitch_keycenter=A#4
sample=Electric_fast_repeat_MF_A#5.opus
</region>

<region>
end=57600
hikey=G2
hivel=13
interval_point=36666
lokey=F#2
lovel=13
offset=9600
pitch_keycenter=F#2
sample=Electric_hammer_pull_MF_F#3_-1.opus
</region>

<region>
end=57600
hikey=A3
hivel=16
interval_point=36178
lokey=G#3
lovel=16
offset=9600
pitch_keycenter=G#3
sample=Electric_hammer_pull_MF_G#4_-4.opus
</region>

<region>
end=67200
hikey=D#3
hivel=3
interval_point=40960
lokey=D3
lovel=3
offset=9600
pitch_keycenter=D3
sample=Electric_hammer_pull_MF_D4_+3.opus
</region>

<region>
end=67200
hikey=G4
hivel=3
interval_point=38400
lokey=F#4
lovel=3
offset=9600
pitch_keycenter=F#4
sample=Electric_hammer_pull_MF_F#5_+3.opus
</region>

<region>
end=67200
hikey=F4
hivel=1
interval_point=40448
lokey=E4
lovel=1
offset=9600
pitch_keycenter=E4
sample=Electric_hammer_pull_MF_E5_+1.opus
</region>

<region>
end=67200
hikey=A5
hivel=1
interval_point=37963
lokey=G#5
lovel=1
offset=9600
pitch_keycenter=G#5
sample=Electric_hammer_pull_MF_G#6_+1.opus
</region>

<region>
end=64928
hikey=C#3
hivel=13
interval_point=36734
lokey=C3
lovel=13
offset=9600
pitch_keycenter=C3
sample=Electric_hammer_pull_MF_C4_-1.opus
</region>

<region>
end=67200
hikey=E6
hivel=1
interval_point=39936
lokey=C6
lovel=1
offset=9600
pitch_keycenter=C6
sample=Electric_hammer_pull_MF_C7_+1.opus
</region>

<region>
end=57600
hikey=D#5
hivel=16
interval_point=34035
lokey=D5
lovel=16
offset=9600
pitch_keycenter=D5
sample=Electric_hammer_pull_MF_D6_-4.opus
</region>

<region>
end=57600
hikey=F4
hivel=13
interval_point=35166
lokey=E4
lovel=13
offset=9600
pitch_keycenter=E4
sample=Electric_hammer_pull_MF_E5_-1.opus
</region>

<region>
end=67200
hikey=D#4
hivel=1
interval_point=38023
lokey=D4
lovel=1
offset=9600
pitch_keycenter=D4
sample=Electric_hammer_pull_MF_D5_+1.opus
</region>

<region>
end=67200
hikey=C#4
hivel=2
interval_point=39424
lokey=C4
lovel=2
offset=9600
sample=Electric_hammer_pull_MF_C5_+2.opus
</region>

<region>
end=57600
hikey=D#5
hivel=14
interval_point=32691
lokey=D5
lovel=14
offset=9600
pitch_keycenter=D5
sample=Electric_hammer_pull_MF_D6_-2.opus
</region>

<region>
end=67200
hikey=F2
hivel=2
interval_point=41472
lokey=C2
lovel=2
offset=9600
pitch_keycenter=E2
sample=Electric_hammer_pull_MF_E3_+2.opus
</region>

<region>
end=67200
hikey=D#4
hivel=3
interval_point=37376
lokey=D4
lovel=3
offset=9600
pitch_keycenter=D4
sample=Electric_hammer_pull_MF_D5_+3.opus
</region>

<region>
end=57600
hikey=C#5
hivel=14
interval_point=33792
lokey=C5
lovel=14
offset=9600
pitch_keycenter=C5
sample=Electric_hammer_pull_MF_C6_-2.opus
</region>

<region>
end=67200
hikey=A3
hivel=1
interval_point=36371
lokey=G#3
lovel=1
offset=9600
pitch_keycenter=G#3
sample=Electric_hammer_pull_MF_G#4_+1.opus
</region>

<region>
end=57600
hikey=B2
hivel=14
interval_point=35299
lokey=A#2
lovel=14
offset=9600
pitch_keycenter=A#2
sample=Electric_hammer_pull_MF_A#3_-2.opus
</region>

<region>
end=67200
hikey=F3
hivel=2
interval_point=37888
lokey=E3
lovel=2
offset=9600
pitch_keycenter=E3
sample=Electric_hammer_pull_MF_E4_+2.opus
</region>

<region>
end=67200
hikey=F5
hivel=0
interval_point=41984
lokey=E5
lovel=0
offset=9600
pitch_keycenter=E5
sample=Electric_fast_repeat_MF_E6.opus
</region>

<region>
end=67200
hikey=G2
hivel=4
interval_point=40960
lokey=F#2
lovel=4
offset=9600
pitch_keycenter=F#2
sample=Electric_hammer_pull_MF_F#3_+4.opus
</region>

<region>
end=57600
hikey=F3
hivel=14
interval_point=34820
lokey=E3
lovel=14
offset=9600
pitch_keycenter=E3
sample=Electric_hammer_pull_MF_E4_-2.opus
</region>

<region>
end=67200
hikey=B2
hivel=3
interval_point=36864
lokey=A#2
lovel=3
offset=9600
pitch_keycenter=A#2
sample=Electric_hammer_pull_MF_A#3_+3.opus
</region>

<region>
end=67200
hikey=A3
hivel=4
interval_point=37328
lokey=G#3
lovel=4
offset=9600
pitch_keycenter=G#3
sample=Electric_hammer_pull_MF_G#4_+4.opus
</region>

<region>
end=67200
hikey=C#4
hivel=4
interval_point=40275
lokey=C4
lovel=4
offset=9600
sample=Electric_hammer_pull_MF_C5_+4.opus
</region>

<region>
end=67200
hikey=B3
hivel=0
interval_point=39424
lokey=A#3
lovel=0
offset=9600
pitch_keycenter=A#3
sample=Electric_fast_repeat_MF_A#4.opus
</region>

<region>
end=67200
hikey=A3
hivel=3
interval_point=39936
lokey=G#3
lovel=3
offset=9600
pitch_keycenter=G#3
sample=Electric_hammer_pull_MF_G#4_+3.opus
</region>

<region>
end=57600
hikey=C#4
hivel=13
interval_point=33984
lokey=C4
lovel=13
offset=9600
sample=Electric_hammer_pull_MF_C5_-1.opus
</region>

<region>
end=57600
hikey=B3
hivel=16
interval_point=36593
lokey=A#3
lovel=16
offset=9600
pitch_keycenter=A#3
sample=Electric_hammer_pull_MF_A#4_-4.opus
</region>

<region>
end=57600
hikey=F2
hivel=16
interval_point=34434
lokey=C2
lovel=16
offset=9600
pitch_keycenter=E2
sample=Electric_hammer_pull_MF_E3_-4.opus
</region>

<region>
end=57600
hikey=D#4
hivel=15
interval_point=35473
lokey=D4
lovel=15
offset=9600
pitch_keycenter=D4
sample=Electric_hammer_pull_MF_D5_-3.opus
</region>

<region>
end=67200
hikey=G5
hivel=2
interval_point=40960
lokey=F#5
lovel=2
offset=9600
pitch_keycenter=F#5
sample=Electric_hammer_pull_MF_F#6_+2.opus
</region>

<region>
end=57600
hikey=D#3
hivel=13
interval_point=34435
lokey=D3
lovel=13
offset=9600
pitch_keycenter=D3
sample=Electric_hammer_pull_MF_D4_-1.opus
</region>

<region>
end=67200
hikey=F2
hivel=1
interval_point=42496
lokey=C2
lovel=1
offset=9600
pitch_keycenter=E2
sample=Electric_hammer_pull_MF_E3_+1.opus
</region>

<region>
end=57600
hikey=G5
hivel=15
interval_point=35729
lokey=F#5
lovel=15
offset=9600
pitch_keycenter=F#5
sample=Electric_hammer_pull_MF_F#6_-3.opus
</region>

<region>
end=57600
hikey=B2
hivel=15
interval_point=33170
lokey=A#2
lovel=15
offset=9600
pitch_keycenter=A#2
sample=Electric_hammer_pull_MF_A#3_-3.opus
</region>

<region>
end=57600
hikey=B3
hivel=13
interval_point=34314
lokey=A#3
lovel=13
offset=9600
pitch_keycenter=A#3
sample=Electric_hammer_pull_MF_A#4_-1.opus
</region>

<region>
end=57600
hikey=A3
hivel=13
interval_point=35448
lokey=G#3
lovel=13
offset=9600
pitch_keycenter=G#3
sample=Electric_hammer_pull_MF_G#4_-1.opus
</region>

<region>
end=57600
hikey=D#3
hivel=16
interval_point=33280
lokey=D3
lovel=16
offset=9600
pitch_keycenter=D3
sample=Electric_hammer_pull_MF_D4_-4.opus
</region>

<region>
end=67200
hikey=E6
hivel=4
interval_point=39424
lokey=G#5
lovel=4
offset=9600
pitch_keycenter=G#5
sample=Electric_hammer_pull_MF_G#6_+4.opus
</region>

<region>
end=67200
hikey=A4
hivel=3
interval_point=38912
lokey=G#4
lovel=3
offset=9600
pitch_keycenter=G#4
sample=Electric_hammer_pull_MF_G#5_+3.opus
</region>

<region>
end=57600
hikey=C#3
hivel=15
interval_point=34547
lokey=C3
lovel=15
offset=9600
pitch_keycenter=C3
sample=Electric_hammer_pull_MF_C4_-3.opus
</region>

<region>
end=57600
hikey=C#4
hivel=16
interval_point=34304
lokey=C4
lovel=16
offset=9600
sample=Electric_hammer_pull_MF_C5_-4.opus
</region>

<region>
end=67200
hikey=A5
hivel=3
interval_point=38912
lokey=G#5
lovel=3
offset=9600
pitch_keycenter=G#5
sample=Electric_hammer_pull_MF_G#6_+3.opus
</region>

<region>
end=57600
hikey=G2
hivel=14
interval_point=33134
lokey=F#2
lovel=14
offset=9600
pitch_keycenter=F#2
sample=Electric_hammer_pull_MF_F#3_-2.opus
</region>

<region>
end=67200
hikey=G2
hivel=2
interval_point=37376
lokey=F#2
lovel=2
offset=9600
pitch_keycenter=F#2
sample=Electric_hammer_pull_MF_F#3_+2.opus
</region>

<region>
end=67200
hikey=A2
hivel=2
interval_point=38999
lokey=G#2
lovel=2
offset=9600
pitch_keycenter=G#2
sample=Electric_hammer_pull_MF_G#3_+2.opus
</region>

<region>
end=67200
hikey=F5
hivel=3
interval_point=41472
lokey=E5
lovel=3
offset=9600
pitch_keycenter=E5
sample=Electric_hammer_pull_MF_E6_+3.opus
</region>

<region>
end=57600
hikey=A4
hivel=13
interval_point=33841
lokey=G#4
lovel=13
offset=9600
pitch_keycenter=G#4
sample=Electric_hammer_pull_MF_G#5_-1.opus
</region>

<region>
end=67200
hikey=D#3
hivel=4
interval_point=40588
lokey=D3
lovel=4
offset=9600
pitch_keycenter=D3
sample=Electric_hammer_pull_MF_D4_+4.opus
</region>

<region>
end=67200
hikey=G4
hivel=4
interval_point=37813
lokey=F#4
lovel=4
offset=9600
pitch_keycenter=F#4
sample=Electric_hammer_pull_MF_F#5_+4.opus
</region>

<region>
end=67200
hikey=D#3
hivel=2
interval_point=39301
lokey=D3
lovel=2
offset=9600
pitch_keycenter=D3
sample=Electric_hammer_pull_MF_D4_+2.opus
</region>

<region>
end=57600
hikey=F3
hivel=15
interval_point=33972
lokey=E3
lovel=15
offset=9600
pitch_keycenter=E3
sample=Electric_hammer_pull_MF_E4_-3.opus
</region>

<region>
end=67200
hikey=A4
hivel=4
interval_point=37888
lokey=G#4
lovel=4
offset=9600
pitch_keycenter=G#4
sample=Electric_hammer_pull_MF_G#5_+4.opus
</region>
</group>